<svg width="500" height="500" viewBox="0 0 500 500" fill="none" xmlns="http://www.w3.org/2000/svg">
<circle cx="250" cy="250" r="250" fill="#FD5B32"/>
<g clip-path="url(#clip0_9_63)">
<path d="M334.303 145.005C318.673 127.554 298.023 111.36 246.979 111.004C227.036 110.845 196.592 115.562 172.904 140.61C158.571 155.736 148.028 174.847 151.025 206.083C151.678 212.861 161.353 220.702 154.553 233.783C154.553 233.783 139.945 259.491 140.459 263.766C140.459 263.766 140.2 271.586 152.3 271.832C152.3 271.832 155.321 272.223 154.449 278.887L154.305 288.603C154.305 288.603 154.69 291.494 159.983 293.251C159.983 293.251 160.991 294.259 159.486 296.162C159.486 296.162 156.702 299.268 161.497 305.983C163.273 308.428 166.159 311.512 164.395 317.841C164.395 317.841 162.127 330.041 166.916 332.962C166.916 332.962 172.36 339.424 194.267 336.719C201.927 335.778 216.065 332.072 224.491 342.655C224.491 342.655 244.639 380.943 246.174 390C246.174 390 280.56 328.782 322.532 319.332C322.532 319.332 312.304 296.274 333.109 266.413C333.109 266.413 359.183 232.016 359.954 213.121C359.94 213.12 366.816 181.28 334.303 145.005ZM209.685 182.874C208.196 183.416 207.202 184.834 207.187 186.413L207.028 204.207C177.081 202.448 177.352 189.259 179.941 172.494C181.998 159.179 192.356 148.251 207.612 141.284L207.438 161.214C207.423 162.793 208.394 164.218 209.866 164.79C211.337 165.368 213.001 164.957 214.071 163.775C217.043 160.432 221.212 158.527 225.566 158.527C225.615 158.527 225.651 158.527 225.696 158.527C234.198 158.605 241.057 165.594 240.99 174.109C240.905 182.577 233.987 189.432 225.545 189.432C225.492 189.432 225.448 189.432 225.408 189.432C221.017 189.396 216.817 187.413 213.893 183.996C212.827 182.77 211.148 182.336 209.685 182.874ZM301.594 230.163C295.145 229.511 288.572 227.75 282.554 225.164C266.856 218.43 262.514 200.534 237.848 203.062C228.765 203.996 221.176 204.381 214.594 204.396L214.695 194.258C217.941 196.004 221.561 196.967 225.296 197.007C225.363 197.007 225.423 197.007 225.478 197.007C238.074 197.007 248.406 186.805 248.518 174.168C248.632 161.465 238.386 151.045 225.698 150.93C222.093 150.945 218.32 151.803 215.058 153.494L215.202 138.249C227.542 134.083 242.25 132.201 258.081 133.338C274.364 134.483 289.603 139.305 302.352 146.597L302.27 154.231C299.024 152.478 295.406 151.514 291.665 151.485C279.183 151.652 268.57 161.624 268.422 174.32C268.362 180.483 270.727 186.282 275.026 190.677C279.339 195.061 285.098 197.507 291.265 197.551C295.125 197.451 298.639 196.688 301.893 194.987L301.594 230.163ZM309.184 230.363L309.57 187.277C309.585 185.698 308.614 184.272 307.147 183.704C305.678 183.134 304.012 183.534 302.937 184.72C299.934 188.089 295.859 189.804 291.339 189.956C287.217 189.927 283.349 188.277 280.465 185.351C277.561 182.404 275.988 178.521 276.026 174.4C276.122 165.921 283.029 159.069 291.47 159.069C291.515 159.069 291.567 159.069 291.612 159.069C296.073 159.105 300.164 161.04 303.135 164.508C304.157 165.716 305.832 166.138 307.316 165.615C308.806 165.079 309.799 163.667 309.814 162.088L309.918 151.43C324.947 162.177 335.198 176.781 337.125 192.991C340.247 219.358 326.231 229.533 309.184 230.363Z" fill="white"/>
</g>
<defs>
<clipPath id="clip0_9_63">
<rect width="279" height="279" fill="white" transform="translate(111 111)"/>
</clipPath>
</defs>
</svg>
